<?xml version="1.0" encoding="utf-8"?>
<!-- Generator: Adobe Illustrator 23.0.3, SVG Export Plug-In . SVG Version: 6.00 Build 0)  -->
<svg version="1.1" id="Layer_1" xmlns="http://www.w3.org/2000/svg" xmlns:xlink="http://www.w3.org/1999/xlink" x="0px" y="0px"
	 viewBox="0 0 1366 422" style="enable-background:new 0 0 1366 422;" xml:space="preserve">
<style type="text/css">
	.st0{fill:#FFFFFF;}
</style>
<g>
	<path class="st0" d="M0,28.9C0,17.6,7.5,9.4,18.2,9.4h231.2c9.4,0,15.1,4.4,15.1,12.6v3.1c0,9.4-5.7,13.2-15.1,13.2H32.1v168.4
		h161.5c10.1,0,15.1,4.4,15.1,13.2v1.9c0,8.8-5,13.2-15.1,13.2H32.1v168.4c0,9.4-5,14.5-14.5,14.5h-4.4c-8.8,0-13.2-5-13.2-15.1
		V28.9z"/>
	<path class="st0" d="M305.3,20c0-9.5,4.4-14.5,13.3-14.5h4.4c9.5,0,14.5,5.1,14.5,14.5v383.3c0,9.5-5.1,14.5-14.5,14.5h-4.4
		c-8.8,0-13.3-5.1-13.3-14.5V20z"/>
	<path class="st0" d="M402.9,403.3V27.8c0-11.4,7.6-19.5,18.3-19.5h104.6c96.4,0,150,44.7,150,122.2c0,79.4-52.3,124.8-153.1,124.8
		H435v148.1c0,8.2-5,14.5-14.5,14.5h-4.4C407.3,417.8,402.9,412.8,402.9,403.3z M642.3,131.7c0-61.1-39.7-94.5-115.9-94.5H435v189.7
		h90.1C602.6,226.9,642.3,192.9,642.3,131.7z"/>
	<path class="st0" d="M723.5,402.7V28.4c0-11.3,7.6-19.5,18.3-19.5h110.1c95.6,0,146.6,40.3,146.6,115.8c0,74.8-51.6,117-138.4,117
		h-13.8l150.4,161c1.9,2.5-5.7,15.1-19.5,15.1c-5.7,0-12.6-3.2-19.5-11.3L805.3,241.7H755v161.7c0,8.2-4.4,14.5-14.5,14.5h-3.8
		C727.9,417.8,723.5,412.8,723.5,402.7z M855,214.6c74.2,0,110.1-34.6,110.1-88.7c0-57.2-37.7-88.1-112-88.1H755v176.8H855z"/>
	<path class="st0" d="M1008.1,408.4l154.6-391.9c3.2-7.6,8.8-12,24-12c15.1,0,20.8,4.4,24,12L1366,408.4c0.6,2.5-6.9,7.6-15.1,8.8
		c-8.2,1.3-17.7-1.3-22.7-14.5L1277,275.3h-181.7l-50.5,127.5c-5,13.9-14.5,16.4-22.7,14.5C1013.8,416,1007.5,410.3,1008.1,408.4z
		 M1266.9,246.9l-80.1-205.7l-81.4,205.7H1266.9z"/>
</g>
</svg>
